<svg width="1200" height="520" viewBox="0 0 1200 520" xmlns="http://www.w3.org/2000/svg">
  <defs>
    <linearGradient id="bg" x1="0" y1="0" x2="1" y2="1">
      <stop offset="0%" stop-color="#F5F8FF"/>
      <stop offset="100%" stop-color="#E6F0FF"/>
    </linearGradient>
    <marker id="arrow" markerWidth="12" markerHeight="12" refX="10" refY="6" orient="auto">
      <path d="M 0 0 L 12 6 L 0 12 Z" fill="#2563EB"/>
    </marker>
    <filter id="shadow" x="-20%" y="-20%" width="140%" height="140%">
      <feDropShadow dx="0" dy="4" stdDeviation="6" flood-color="#0F172A" flood-opacity="0.12"/>
    </filter>
  </defs>

  <rect x="0" y="0" width="1200" height="520" fill="url(#bg)"/>

  <rect x="50" y="70" width="660" height="380" rx="18" fill="#FFFFFF" stroke="#C7D8F5" stroke-width="2" filter="url(#shadow)"/>
  <text x="80" y="105" font-family="Segoe UI, Arial, sans-serif" font-size="16" font-weight="700" fill="#0F172A">Raspberry Pi (local)</text>

  <g font-family="Segoe UI, Arial, sans-serif" font-size="14" fill="#0F172A">
    <rect x="100" y="140" width="160" height="80" rx="12" fill="#E8F3FF" stroke="#60A5FA"/>
    <text x="140" y="188">Camera</text>

    <rect x="300" y="140" width="190" height="80" rx="12" fill="#E8F3FF" stroke="#60A5FA"/>
    <text x="330" y="188">Runtime</text>

    <rect x="300" y="260" width="190" height="80" rx="12" fill="#ECFEFF" stroke="#22D3EE"/>
    <text x="340" y="308">GUI</text>

    <rect x="520" y="200" width="160" height="80" rx="12" fill="#EEF2FF" stroke="#818CF8"/>
    <text x="540" y="248">API Server</text>
  </g>

  <g font-family="Segoe UI, Arial, sans-serif" font-size="14" fill="#0F172A">
    <rect x="760" y="140" width="180" height="80" rx="12" fill="#DBEAFE" stroke="#3B82F6"/>
    <text x="790" y="188">Cloudflare</text>

    <rect x="760" y="260" width="180" height="80" rx="12" fill="#DCFCE7" stroke="#22C55E"/>
    <text x="795" y="308">Firebase RTDB</text>

    <rect x="980" y="200" width="160" height="80" rx="12" fill="#FEF3C7" stroke="#F59E0B"/>
    <text x="1010" y="248">Mobile App</text>
  </g>

  <g stroke="#2563EB" stroke-width="2.5" fill="none" marker-end="url(#arrow)">
    <path d="M 260 180 L 300 180"/>
    <path d="M 490 180 L 520 220"/>
    <path d="M 395 220 L 395 260"/>
    <path d="M 680 240 L 760 180"/>
    <path d="M 940 180 L 980 220"/>
    <path d="M 490 180 L 760 300"/>
    <path d="M 940 300 L 980 260"/>
  </g>

  <g font-family="Segoe UI, Arial, sans-serif" font-size="12" fill="#1E40AF">
    <text x="700" y="168">Public URL</text>
    <text x="620" y="310">URL push</text>
    <text x="920" y="296">URL read</text>
  </g>
</svg>
